PathFileType	4	(X/Y/Z)	s04c0302.trc
DataRate	CameraRate	NumFrames	NumMarkers	Units	OrigDataRate	OrigDataStartFrame	OrigNumFrames
200	200	4	50	mm	200	1250	2000
Frame#	Time	racr			lacr			c7			jug			rlel			rdr			llel			ldr			s2			lic			ric			lasi			rasi			rpsi			lpsi			rgt			lgt			rth1			rth2			rth3			rth4			rlfc			rmfc			rsh1			rsh2			rsh3			rsh4			rlmal			rmmal			rcal			rtoe			rmt5			lth1			lth2			lth4			lth3			llfc			lmfc			lsh1			lsh2			lsh3			lsh4			llmal			lmmal			lcal			ltoe			lmt5			SBIKE			LBIKE			RBIKE			
		X1	Y1	Z1	X2	Y2	Z2	X3	Y3	Z3	X4	Y4	Z4	X5	Y5	Z5	X6	Y6	Z6	X7	Y7	Z7	X8	Y8	Z8	X9	Y9	Z9	X10	Y10	Z10	X11	Y11	Z11	X12	Y12	Z12	X13	Y13	Z13	X14	Y14	Z14	X15	Y15	Z15	X16	Y16	Z16	X17	Y17	Z17	X18	Y18	Z18	X19	Y19	Z19	X20	Y20	Z20	X21	Y21	Z21	X22	Y22	Z22	X23	Y23	Z23	X24	Y24	Z24	X25	Y25	Z25	X26	Y26	Z26	X27	Y27	Z27	X28	Y28	Z28	X29	Y29	Z29	X30	Y30	Z30	X31	Y31	Z31	X32	Y32	Z32	X33	Y33	Z33	X34	Y34	Z34	X35	Y35	Z35	X36	Y36	Z36	X37	Y37	Z37	X38	Y38	Z38	X39	Y39	Z39	X40	Y40	Z40	X41	Y41	Z41	X42	Y42	Z42	X43	Y43	Z43	X44	Y44	Z44	X45	Y45	Z45	X46	Y46	Z46	X47	Y47	Z47	X48	Y48	Z48	X49	Y49	Z49	X50	Y50	Z50	
1250	6.2500	813.860644	1282.971866	-105.208374	824.165287	1233.276287	-428.478873	842.489292	1339.863888	-283.819796	756.992076	1203.996991	-282.193845	586.727473	1118.046186	58.475286	706.665557	919.059107	-99.154469	592.915964	1126.053513	-589.566016	698.729074	909.700718	-487.666956	249.171116	1254.427398	-362.724890	428.146165	1187.058082	-471.998253	360.013230	1281.919421	-172.974257	442.890059	1142.379861	-412.687537	403.928260	1218.429133	-194.626149	279.416659	1301.161802	-328.013254	297.205626	1282.751796	-398.760962	311.138577	1238.867953	-150.265673	345.019262	1105.016958	-491.940566	420.180895	1130.413415	-105.936083	496.449274	1086.707450	-98.728583	541.285296	1015.814410	-84.042512	519.965501	1107.616029	-120.084052	629.026847	900.477247	-87.862007	628.564500	876.991779	-203.301710	529.304820	834.130219	-74.913002	470.003199	767.187925	-95.975465	388.201220	745.860546	-112.089548	491.863081	742.371997	-115.172172	268.669547	648.815601	-135.329688	301.132417	638.188562	-214.075086	206.765633	674.488665	-182.250936	387.270862	432.344460	-164.236066	325.243403	471.472512	-112.538693	335.118907	1020.746827	-503.707157	357.138236	936.530827	-502.344182	392.736958	937.212842	-494.996953	333.082424	850.932863	-498.548025	319.794493	683.364893	-472.865091	335.795117	659.080195	-360.157124	277.871957	561.184072	-490.381994	264.755224	478.188930	-469.499302	211.635169	407.218059	-467.928137	292.158492	470.474303	-441.498131	153.727064	271.447684	-462.319385	146.701093	276.172513	-376.673150	75.808907	290.722296	-427.107466	328.594133	122.777057	-405.046232	253.303652	125.792734	-471.957058	-185.031796	931.551925	-287.799379	-17.556025	78.995349	-485.519921	-17.492007	79.433963	-84.895313	
1251	6.2550	814.801836	1280.897206	-103.473035	823.986871	1234.275740	-427.106914	843.317172	1339.351483	-281.628770	757.011937	1203.986003	-281.100249	585.117280	1117.289329	59.394322	705.925646	919.339332	-99.212831	593.545602	1126.797265	-588.865851	698.824523	909.626582	-487.578747	249.368978	1257.220334	-363.666188	428.903659	1188.542773	-471.099621	359.412474	1284.234082	-173.195706	443.075246	1143.965042	-411.841602	402.794220	1221.240770	-194.499152	279.536627	1303.925991	-328.567074	297.863211	1285.070725	-399.283553	309.894425	1242.514718	-150.764207	345.270350	1106.671943	-491.570180	419.113980	1134.024359	-106.730373	495.851367	1091.000524	-99.878323	541.397719	1020.577860	-85.394425	519.107853	1112.508818	-120.961610	629.582004	906.931324	-89.067012	630.246117	884.142982	-205.665645	533.132284	838.317298	-76.475748	475.033998	770.037512	-96.884050	393.987428	746.619429	-112.811738	497.604527	745.655465	-116.341874	275.939929	646.962831	-135.470023	308.191170	636.606503	-213.999691	213.499631	671.109781	-182.021413	398.579879	432.476515	-164.240219	335.691627	470.091871	-112.661410	335.009581	1023.719684	-503.272879	356.060785	939.300174	-502.804619	391.687360	939.521383	-495.438455	331.227866	853.879456	-499.427716	315.882607	686.175175	-473.896607	332.211087	660.892233	-360.729417	273.000075	564.391137	-491.336527	259.196999	481.428637	-470.495742	205.354716	411.001756	-468.818717	286.586473	473.396613	-442.568535	146.808509	275.465324	-462.854845	140.251374	280.254798	-376.904867	69.332880	296.175104	-427.482071	318.269484	122.632723	-405.135195	242.995378	127.117116	-471.985905	-185.162033	931.567155	-287.787848	-17.562724	79.004733	-485.507390	-17.495920	79.441864	-84.876761	
1252	6.2600	815.819535	1278.484324	-101.735131	823.764401	1235.331515	-425.831654	844.170820	1338.709903	-279.357573	757.032266	1203.878250	-280.049354	583.277462	1116.491703	60.103864	705.656276	919.796237	-98.967023	594.107766	1127.593408	-588.018132	698.898405	909.572423	-487.511936	249.363391	1260.230251	-363.937450	429.432962	1190.385631	-470.236492	358.283306	1286.703177	-172.841812	442.905242	1145.727646	-410.818489	401.768617	1224.152111	-194.246630	279.703324	1306.907988	-328.972558	298.428049	1287.775335	-399.482524	308.938367	1246.383870	-150.863651	345.537007	1108.717424	-491.455527	417.993364	1137.370697	-107.658273	495.109424	1094.929914	-101.276919	541.147869	1024.888769	-87.258718	518.338096	1116.895554	-122.054064	632.612513	912.506832	-92.598497	631.127250	890.575987	-208.398484	536.039730	841.931318	-78.311937	479.474837	772.150397	-98.226152	398.847548	746.902662	-113.698188	502.377278	748.340482	-117.438744	282.505991	644.173400	-135.447364	315.233571	634.413776	-213.902320	219.495132	666.805858	-181.659001	409.400835	432.078008	-164.486984	345.860098	468.407031	-112.533366	335.211894	1026.872371	-502.919125	355.679052	942.347837	-503.005520	391.210391	942.217251	-495.561015	330.195642	857.043138	-500.417725	313.227507	689.410604	-474.656486	329.823182	662.872062	-361.210170	269.321029	568.046355	-492.201987	254.554090	485.146046	-471.256722	199.821506	415.389999	-469.609515	282.298105	477.043634	-444.463142	140.080373	280.338511	-463.436871	134.041816	285.372105	-377.281009	63.257646	302.443417	-427.796329	308.072461	123.097020	-405.273982	232.843717	129.028657	-471.934862	-185.176177	931.572245	-287.662981	-17.569420	78.999035	-485.514688	-17.507683	79.439446	-84.888663	
1253	6.2650	816.730866	1275.812605	-100.319781	823.416843	1236.403852	-424.568421	844.942455	1337.920182	-277.346765	756.922451	1203.673632	-279.340536	581.440001	1115.598810	60.855131	705.543563	920.418960	-98.890920	594.518398	1128.340408	-587.066337	698.961407	909.567522	-487.435845	249.400409	1263.494768	-363.929023	429.653027	1192.480947	-469.198948	357.288067	1289.531962	-172.382401	442.621815	1147.976835	-409.867234	400.877238	1227.194711	-193.854883	279.844251	1310.165672	-329.055085	298.293818	1290.816659	-398.785012	308.207598	1250.435093	-150.766853	345.852769	1111.228705	-491.278553	416.854688	1140.503302	-108.831358	494.223809	1098.521299	-102.820714	540.453081	1028.666941	-89.493866	517.017647	1121.139204	-122.838136	633.160164	917.523274	-95.303827	631.557206	895.768834	-211.389966	538.007826	844.867020	-80.633751	482.837623	773.807429	-99.639823	402.774791	746.547001	-114.692414	506.463273	750.371472	-117.982270	288.544508	640.613004	-135.203664	321.426470	631.743967	-213.734433	224.827045	661.573872	-180.860815	420.099237	431.467603	-164.536538	355.737246	466.183608	-112.103004	335.761888	1030.152481	-502.594048	355.965588	945.575756	-502.863234	391.451517	945.271794	-495.298361	330.260994	860.345188	-501.234470	312.054166	692.908900	-475.148335	328.887906	664.951808	-361.695229	267.092916	571.879011	-492.961995	251.101606	489.214592	-471.946891	195.331148	420.243342	-470.292369	278.738055	480.705004	-445.343201	133.782626	285.898479	-464.070279	128.276596	291.135242	-377.694689	57.625788	309.365374	-428.006707	298.019862	124.224384	-405.493959	222.826761	131.783411	-472.016291	-185.196977	931.620528	-287.562403	-17.574844	79.092942	-485.486442	-17.528967	79.472537	-84.879941	
